<svg width="988" height="347" viewBox="0 0 988 347" fill="none" xmlns="http://www.w3.org/2000/svg">
<path d="M350.359 285.166C367.027 285.166 380.539 272.705 380.539 257.334C380.539 241.962 367.027 229.501 350.359 229.501C333.691 229.501 320.178 241.962 320.178 257.334C320.178 272.705 333.691 285.166 350.359 285.166Z" fill="#F6F2E9"/>
<path d="M300.027 141.759C315.255 141.759 327.6 130.375 327.6 116.331C327.6 102.288 315.255 90.9032 300.027 90.9032C284.799 90.9032 272.454 102.288 272.454 116.331C272.454 130.375 284.799 141.759 300.027 141.759Z" fill="#F6F2E9"/>
<path d="M295.551 269.078C306.138 269.078 314.721 261.163 314.721 251.399C314.721 241.635 306.138 233.72 295.551 233.72C284.963 233.72 276.38 241.635 276.38 251.399C276.38 261.163 284.963 269.078 295.551 269.078Z" fill="#F6F2E9"/>
<path d="M295.294 181.906C305.292 181.906 313.397 174.432 313.397 165.211C313.397 155.991 305.292 148.516 295.294 148.516C285.296 148.516 277.191 155.991 277.191 165.211C277.191 174.432 285.296 181.906 295.294 181.906Z" fill="#F6F2E9"/>
<path d="M105.449 121.177C115.447 121.177 123.552 113.702 123.552 104.482C123.552 95.2614 115.447 87.7869 105.449 87.7869C95.4511 87.7869 87.3461 95.2614 87.3461 104.482C87.3461 113.702 95.4511 121.177 105.449 121.177Z" fill="#F6F2E9"/>
<path d="M354.61 130.065C364.608 130.065 372.713 122.59 372.713 113.37C372.713 104.149 364.608 96.6749 354.61 96.6749C344.612 96.6749 336.506 104.149 336.506 113.37C336.506 122.59 344.612 130.065 354.61 130.065Z" fill="#F6F2E9"/>
<path d="M255.007 123.24C262.449 123.24 268.482 117.676 268.482 110.813C268.482 103.95 262.449 98.3865 255.007 98.3865C247.565 98.3865 241.532 103.95 241.532 110.813C241.532 117.676 247.565 123.24 255.007 123.24Z" fill="#F6F2E9"/>
<path d="M107.718 169.755C117.931 169.755 126.211 162.119 126.211 152.7C126.211 143.281 117.931 135.645 107.718 135.645C97.5039 135.645 89.224 143.281 89.224 152.7C89.224 162.119 97.5039 169.755 107.718 169.755Z" fill="#F6F2E9"/>
<path d="M214.466 184.647C221.018 184.647 226.329 179.749 226.329 173.707C226.329 167.666 221.018 162.768 214.466 162.768C207.915 162.768 202.604 167.666 202.604 173.707C202.604 179.749 207.915 184.647 214.466 184.647Z" fill="#F6F2E9"/>
<path d="M365.957 226.991C372.508 226.991 377.819 222.094 377.819 216.052C377.819 210.01 372.508 205.112 365.957 205.112C359.405 205.112 354.094 210.01 354.094 216.052C354.094 222.094 359.405 226.991 365.957 226.991Z" fill="#F6F2E9"/>
<path d="M334.72 97.9443C341.272 97.9443 346.583 93.0465 346.583 87.0048C346.583 80.9631 341.272 76.0653 334.72 76.0653C328.169 76.0653 322.858 80.9631 322.858 87.0048C322.858 93.0465 328.169 97.9443 334.72 97.9443Z" fill="#F6F2E9"/>
<path d="M397.929 73.4107C404.48 73.4107 409.791 68.5129 409.791 62.4712C409.791 56.4295 404.48 51.5317 397.929 51.5317C391.377 51.5317 386.066 56.4295 386.066 62.4712C386.066 68.5129 391.377 73.4107 397.929 73.4107Z" fill="#F6F2E9"/>
<path d="M326.053 227.067C339.776 227.067 350.901 216.808 350.901 204.153C350.901 191.497 339.776 181.238 326.053 181.238C312.33 181.238 301.205 191.497 301.205 204.153C301.205 216.808 312.33 227.067 326.053 227.067Z" fill="#F6F2E9"/>
<path d="M250.549 175.66C264.512 175.66 275.832 165.22 275.832 152.343C275.832 139.465 264.512 129.026 250.549 129.026C236.585 129.026 225.265 139.465 225.265 152.343C225.265 165.22 236.585 175.66 250.549 175.66Z" fill="#F6F2E9"/>
<path d="M201.874 148.336C214.793 148.336 225.265 138.679 225.265 126.765C225.265 114.852 214.793 105.194 201.874 105.194C188.956 105.194 178.483 114.852 178.483 126.765C178.483 138.679 188.956 148.336 201.874 148.336Z" fill="#F6F2E9"/>
<path d="M372.713 96.6751C382.283 96.6751 390.04 89.5209 390.04 80.6957C390.04 71.8704 382.283 64.7162 372.713 64.7162C363.143 64.7162 355.386 71.8704 355.386 80.6957C355.386 89.5209 363.143 96.6751 372.713 96.6751Z" fill="#F6F2E9"/>
<path d="M206.627 223.682C216.766 223.682 224.986 216.102 224.986 206.751C224.986 197.401 216.766 189.82 206.627 189.82C196.488 189.82 188.268 197.401 188.268 206.751C188.268 216.102 196.488 223.682 206.627 223.682Z" fill="#F6F2E9"/>
<path d="M342.984 179.083C356.707 179.083 367.831 168.824 367.831 156.169C367.831 143.513 356.707 133.254 342.984 133.254C329.261 133.254 318.136 143.513 318.136 156.169C318.136 168.824 329.261 179.083 342.984 179.083Z" fill="#F6F2E9"/>
<path d="M150.277 142.684C164 142.684 175.125 132.425 175.125 119.77C175.125 107.114 164 96.8549 150.277 96.8549C136.555 96.8549 125.43 107.114 125.43 119.77C125.43 132.425 136.555 142.684 150.277 142.684Z" fill="#F6F2E9"/>
<path d="M262.411 237.942C280.124 237.942 294.483 224.7 294.483 208.365C294.483 192.03 280.124 178.788 262.411 178.788C244.699 178.788 230.339 192.03 230.339 208.365C230.339 224.7 244.699 237.942 262.411 237.942Z" fill="#F6F2E9"/>
<path d="M162.195 206.371C179.907 206.371 194.267 193.129 194.267 176.794C194.267 160.459 179.907 147.217 162.195 147.217C144.482 147.217 130.122 160.459 130.122 176.794C130.122 193.129 144.482 206.371 162.195 206.371Z" fill="#F6F2E9"/>
<path d="M57.1516 159.738C74.8645 159.738 89.2236 146.495 89.2236 130.16C89.2236 113.825 74.8645 100.583 57.1516 100.583C39.4387 100.583 25.0795 113.825 25.0795 130.16C25.0795 146.495 39.4387 159.738 57.1516 159.738Z" fill="#F6F2E9"/>
<path fill-rule="evenodd" clip-rule="evenodd" d="M202.309 95.7573C179.971 89.5211 148.514 55.8379 105.993 56.767C52.3913 57.9383 -2.90872e-05 100.296 -2.90872e-05 100.296C-2.90872e-05 100.296 45.4908 25.9718 134.035 24.8337C187.549 24.146 235.094 48.3861 294.484 46.5826C338.28 45.2527 409.26 14.7185 409.26 14.7185C409.26 14.7185 355.855 72.8417 287.87 72.7734C252.147 72.7374 214.483 55.7668 191.658 56.0258C171.683 56.2525 238.68 87.4016 240.021 94.1844C241.361 100.967 214.208 99.0792 202.309 95.7573Z" fill="#F6F2E9"/>
<path d="M471.03 71.44C470.404 69.5632 469.518 68.1034 468.371 67.0608C467.328 66.0181 466.233 65.2882 465.087 64.8712C463.94 64.4541 462.845 64.2456 461.802 64.2456H457.579V55.3308H511.85V64.2456H504.499C503.039 64.2456 501.788 64.6105 500.746 65.3404C499.703 65.966 499.182 67.0086 499.182 68.4684C499.182 69.1982 499.286 70.0324 499.494 70.9708C499.703 71.9092 499.911 72.7954 500.12 73.6296C500.433 74.4637 500.693 75.2978 500.902 76.1319L516.229 122.739C516.542 123.573 516.855 124.668 517.168 126.023C517.48 127.379 517.793 128.891 518.106 130.559C518.523 132.227 518.836 133.843 519.044 135.407C519.357 136.971 519.566 138.379 519.67 139.63C519.983 138.066 520.348 136.346 520.765 134.469C521.182 132.488 521.651 130.507 522.172 128.526C522.798 126.545 523.371 124.824 523.893 123.365L539.22 77.3831C539.637 76.3405 540.002 75.2457 540.315 74.0988C540.627 72.9518 540.888 71.9092 541.097 70.9708C541.409 69.9281 541.566 69.094 541.566 68.4684C541.566 67.2172 541.097 66.2266 540.158 65.4968C539.324 64.6627 538.073 64.2456 536.405 64.2456H527.803V55.3308H568.154V64.2456H561.741C560.49 64.2456 559.395 64.5584 558.457 65.184C557.623 65.7053 556.789 66.748 555.955 68.312C555.12 69.876 554.182 72.222 553.139 75.3499L521.39 167H504.03L471.03 71.44ZM570.348 167V158.085H572.225C573.998 158.085 575.666 157.772 577.23 157.147C578.898 156.521 580.201 155.426 581.14 153.862C582.182 152.298 582.704 150.057 582.704 147.137V102.094C582.704 99.3833 582.182 97.3501 581.14 95.9947C580.097 94.5349 578.742 93.5444 577.073 93.0231C575.509 92.3975 573.893 92.0847 572.225 92.0847H569.723V83.1699H610.074V147.45C610.074 150.265 610.543 152.455 611.481 154.019C612.524 155.479 613.827 156.521 615.391 157.147C617.059 157.772 618.78 158.085 620.552 158.085H622.273V167H570.348ZM595.529 69.7196C591.254 69.7196 587.656 68.729 584.737 66.748C581.922 64.7669 580.514 61.7953 580.514 57.8332C580.514 53.6626 581.974 50.6388 584.893 48.762C587.813 46.8853 591.41 45.9469 595.685 45.9469C599.751 45.9469 603.296 46.8853 606.32 48.762C609.344 50.6388 610.856 53.6626 610.856 57.8332C610.856 61.7953 609.344 64.7669 606.32 66.748C603.296 68.729 599.699 69.7196 595.529 69.7196ZM665.163 168.564C657.551 168.564 651.504 166.739 647.021 163.09C642.537 159.336 640.295 152.872 640.295 143.696V94.4307H628.722V85.8287C632.684 85.8287 636.02 85.0467 638.731 83.4827C641.547 81.9187 643.736 80.3026 645.3 78.6343C646.76 77.0703 648.115 75.0371 649.367 72.5348C650.722 70.0324 651.765 67.0608 652.495 63.62H667.822V83.1699H687.528V94.4307H667.822V141.194C667.822 145.678 668.499 148.962 669.855 151.047C671.21 153.028 673.765 154.019 677.518 154.019C679.604 154.019 681.585 153.915 683.462 153.706C685.443 153.393 687.267 153.028 688.936 152.611V164.028C687.163 164.863 684.244 165.853 680.177 167C676.111 168.043 671.106 168.564 665.163 168.564ZM740.982 168.564C726.802 168.564 716.219 164.81 709.233 157.303C702.247 149.692 698.755 139.057 698.755 125.398C698.755 110.696 702.247 99.644 709.233 92.2411C716.323 84.7339 726.281 80.9803 739.106 80.9803C750.992 80.9803 760.324 84.1604 767.101 90.5207C773.983 96.8809 777.423 106.265 777.423 118.673V127.118H726.437C726.646 133.791 727.532 139.265 729.096 143.54C730.764 147.815 733.11 150.995 736.134 153.08C739.158 155.062 742.859 156.052 747.238 156.052C750.888 156.052 754.016 155.479 756.622 154.332C759.333 153.08 761.627 151.464 763.504 149.483C765.485 147.398 767.049 145.052 768.196 142.445C769.968 143.071 771.324 144.061 772.262 145.417C773.305 146.668 773.826 148.284 773.826 150.265C773.826 153.289 772.679 156.208 770.385 159.024C768.196 161.839 764.703 164.133 759.907 165.905C755.11 167.678 748.802 168.564 740.982 168.564ZM750.21 116.483C750.21 111.165 749.845 106.682 749.115 103.033C748.385 99.3833 747.238 96.6203 745.674 94.7435C744.215 92.7624 742.234 91.7719 739.731 91.7719C737.229 91.7719 734.987 92.7103 733.006 94.5871C731.025 96.4639 729.513 99.2269 728.47 102.876C727.428 106.526 726.854 111.061 726.75 116.483H750.21Z" fill="#F6F2E9"/>
<path d="M457.424 300.604V291.695H464.927C466.177 291.695 467.324 291.435 468.366 290.914C469.408 290.393 470.241 289.507 470.866 288.257C471.596 286.902 471.961 285.131 471.961 282.942V206.979C471.961 204.583 471.596 202.759 470.866 201.509C470.137 200.154 469.199 199.216 468.053 198.695C467.011 198.174 465.76 197.914 464.302 197.914H457.424V189.004H514.787V197.914H507.597C505.93 197.914 504.576 198.174 503.534 198.695C502.492 199.216 501.71 200.102 501.189 201.352C500.668 202.603 500.408 204.322 500.408 206.51V290.445H528.698C530.887 290.445 532.762 289.976 534.325 289.038C535.888 288.1 537.243 286.641 538.389 284.662C539.535 282.682 540.525 280.129 541.359 277.003L544.329 265.28H553.238L552.144 300.604H457.424ZM560.114 300.604V291.695H561.99C563.761 291.695 565.428 291.383 566.991 290.757C568.658 290.132 569.961 289.038 570.899 287.475C571.941 285.912 572.462 283.672 572.462 280.754V235.739C572.462 233.03 571.941 230.998 570.899 229.643C569.857 228.184 568.502 227.194 566.835 226.673C565.272 226.048 563.657 225.736 561.99 225.736H559.489V216.826H599.815V281.067C599.815 283.88 600.284 286.068 601.222 287.631C602.264 289.09 603.566 290.132 605.129 290.757C606.796 291.383 608.516 291.695 610.287 291.695H612.006V300.604H560.114ZM585.279 203.384C581.006 203.384 577.411 202.394 574.494 200.415C571.68 198.435 570.274 195.465 570.274 191.505C570.274 187.337 571.732 184.315 574.65 182.44C577.568 180.564 581.163 179.626 585.435 179.626C589.499 179.626 593.042 180.564 596.064 182.44C599.085 184.315 600.596 187.337 600.596 191.505C600.596 195.465 599.085 198.435 596.064 200.415C593.042 202.394 589.447 203.384 585.279 203.384ZM679.722 302.168C673.678 302.168 668.729 300.917 664.873 298.416C661.018 295.811 657.944 292.477 655.651 288.413H654.245L649.243 300.604H617.514V291.695H618.608C620.483 291.695 622.307 291.435 624.078 290.914C625.85 290.393 627.309 289.351 628.455 287.788C629.601 286.225 630.174 283.88 630.174 280.754V201.196C630.174 198.174 629.601 195.934 628.455 194.475C627.413 193.016 626.006 192.026 624.235 191.505C622.463 190.984 620.431 190.724 618.139 190.724H617.514V181.815H657.527V207.761C657.527 209.428 657.475 211.408 657.371 213.7C657.267 215.993 657.11 218.233 656.902 220.421C656.693 222.609 656.485 224.485 656.277 226.048H657.371C659.559 222.818 662.477 220.161 666.124 218.077C669.875 215.888 674.72 214.794 680.66 214.794C690.767 214.794 698.478 218.285 703.793 225.267C709.107 232.248 711.764 243.241 711.764 258.246C711.764 268.354 710.514 276.69 708.013 283.255C705.616 289.715 702.021 294.509 697.228 297.635C692.539 300.657 686.704 302.168 679.722 302.168ZM671.438 289.82C674.46 289.82 676.909 288.621 678.784 286.225C680.66 283.724 682.015 280.129 682.848 275.44C683.786 270.751 684.255 264.967 684.255 258.09C684.255 251.213 683.786 245.482 682.848 240.897C682.015 236.208 680.66 232.717 678.784 230.425C676.909 228.132 674.46 226.986 671.438 226.986C666.02 226.986 662.32 229.591 660.341 234.801C658.465 239.907 657.527 247.722 657.527 258.246C657.527 265.02 657.944 270.751 658.778 275.44C659.611 280.129 661.018 283.724 662.998 286.225C665.082 288.621 667.895 289.82 671.438 289.82ZM767.734 302.168C753.562 302.168 742.986 298.416 736.004 290.914C729.023 283.307 725.532 272.678 725.532 259.028C725.532 244.336 729.023 233.29 736.004 225.892C743.09 218.389 753.041 214.638 765.858 214.638C777.737 214.638 787.063 217.816 793.836 224.173C800.714 230.529 804.152 239.907 804.152 252.307V260.747H753.198C753.406 267.416 754.292 272.887 755.855 277.159C757.522 281.431 759.867 284.61 762.888 286.694C765.91 288.673 769.609 289.663 773.986 289.663C777.633 289.663 780.759 289.09 783.364 287.944C786.073 286.694 788.366 285.078 790.241 283.099C792.221 281.015 793.784 278.67 794.931 276.065C796.702 276.69 798.057 277.68 798.994 279.035C800.036 280.285 800.557 281.9 800.557 283.88C800.557 286.902 799.411 289.82 797.119 292.633C794.931 295.447 791.44 297.739 786.646 299.51C781.853 301.282 775.549 302.168 767.734 302.168ZM776.956 250.119C776.956 244.804 776.591 240.324 775.862 236.677C775.132 233.03 773.986 230.268 772.423 228.393C770.964 226.413 768.984 225.423 766.483 225.423C763.983 225.423 761.742 226.361 759.762 228.236C757.783 230.112 756.272 232.873 755.23 236.52C754.188 240.167 753.615 244.7 753.51 250.119H776.956ZM812.583 300.604V291.695H813.208C815.605 291.695 817.637 291.435 819.304 290.914C820.971 290.393 822.274 289.351 823.212 287.788C824.149 286.12 824.618 283.672 824.618 280.441V236.364C824.618 233.238 824.201 230.946 823.368 229.487C822.638 227.924 821.492 226.934 819.929 226.517C818.366 225.996 816.438 225.736 814.146 225.736H813.677V216.826H847.907L851.033 230.268H851.815C853.378 226.621 855.201 223.652 857.285 221.359C859.37 219.067 861.87 217.399 864.788 216.357C867.706 215.315 871.249 214.794 875.417 214.794C881.46 214.794 885.889 216.149 888.702 218.858C891.516 221.463 892.922 224.85 892.922 229.018C892.922 234.436 890.943 238.448 886.983 241.053C883.128 243.554 877.865 244.804 871.196 244.804C871.196 241.887 870.988 239.49 870.571 237.615C870.154 235.635 869.425 234.124 868.383 233.082C867.445 232.04 865.986 231.519 864.006 231.519C861.714 231.519 859.786 232.3 858.223 233.863C856.764 235.426 855.566 237.51 854.628 240.115C853.795 242.616 853.17 245.325 852.753 248.243C852.336 251.057 852.128 253.662 852.128 256.058V281.223C852.128 284.245 852.544 286.537 853.378 288.1C854.212 289.559 855.41 290.549 856.973 291.07C858.536 291.487 860.307 291.695 862.287 291.695H867.601V300.604H812.583ZM944.337 302.168C930.166 302.168 919.59 298.416 912.608 290.914C905.627 283.307 902.136 272.678 902.136 259.028C902.136 244.336 905.627 233.29 912.608 225.892C919.694 218.389 929.645 214.638 942.462 214.638C954.341 214.638 963.667 217.816 970.44 224.173C977.317 230.529 980.756 239.907 980.756 252.307V260.747H929.801C930.01 267.416 930.895 272.887 932.458 277.159C934.126 281.431 936.47 284.61 939.492 286.694C942.514 288.673 946.213 289.663 950.59 289.663C954.237 289.663 957.363 289.09 959.968 287.944C962.677 286.694 964.969 285.078 966.845 283.099C968.825 281.015 970.388 278.67 971.534 276.065C973.306 276.69 974.66 277.68 975.598 279.035C976.64 280.285 977.161 281.9 977.161 283.88C977.161 286.902 976.015 289.82 973.722 292.633C971.534 295.447 968.043 297.739 963.25 299.51C958.457 301.282 952.153 302.168 944.337 302.168ZM953.559 250.119C953.559 244.804 953.195 240.324 952.465 236.677C951.736 233.03 950.59 230.268 949.027 228.393C947.568 226.413 945.588 225.423 943.087 225.423C940.586 225.423 938.346 226.361 936.366 228.236C934.386 230.112 932.875 232.873 931.833 236.52C930.791 240.167 930.218 244.7 930.114 250.119H953.559Z" fill="#F6F2E9"/>
</svg>
