<svg width="528" height="528" viewBox="0 0 528 528" fill="none" xmlns="http://www.w3.org/2000/svg">
<rect width="528" height="528" rx="264" fill="white"/>
<path d="M407.894 398.794C424.395 398.794 437.772 386.457 437.772 371.239C437.772 356.021 424.395 343.685 407.894 343.685C391.392 343.685 378.015 356.021 378.015 371.239C378.015 386.457 391.392 398.794 407.894 398.794Z" fill="#5E366A"/>
<path d="M358.065 256.82C373.141 256.82 385.362 245.55 385.362 231.647C385.362 217.744 373.141 206.473 358.065 206.473C342.989 206.473 330.768 217.744 330.768 231.647C330.768 245.55 342.989 256.82 358.065 256.82Z" fill="#5E366A"/>
<path d="M353.633 382.867C364.115 382.867 372.612 375.031 372.612 365.364C372.612 355.698 364.115 347.862 353.633 347.862C343.152 347.862 334.655 355.698 334.655 365.364C334.655 375.031 343.152 382.867 353.633 382.867Z" fill="#5E366A"/>
<path d="M353.38 296.566C363.278 296.566 371.302 289.166 371.302 280.038C371.302 270.91 363.278 263.51 353.38 263.51C343.482 263.51 335.458 270.91 335.458 280.038C335.458 289.166 343.482 296.566 353.38 296.566Z" fill="#5E366A"/>
<path d="M165.433 236.444C175.331 236.444 183.355 229.044 183.355 219.916C183.355 210.788 175.331 203.388 165.433 203.388C155.535 203.388 147.511 210.788 147.511 219.916C147.511 229.044 155.535 236.444 165.433 236.444Z" fill="#5E366A"/>
<path d="M412.102 245.243C422 245.243 430.024 237.843 430.024 228.715C430.024 219.587 422 212.187 412.102 212.187C402.204 212.187 394.18 219.587 394.18 228.715C394.18 237.843 402.204 245.243 412.102 245.243Z" fill="#5E366A"/>
<path d="M313.496 238.487C320.863 238.487 326.836 232.979 326.836 226.184C326.836 219.39 320.863 213.882 313.496 213.882C306.128 213.882 300.156 219.39 300.156 226.184C300.156 232.979 306.128 238.487 313.496 238.487Z" fill="#5E366A"/>
<path d="M167.679 284.536C177.791 284.536 185.988 276.977 185.988 267.652C185.988 258.327 177.791 250.768 167.679 250.768C157.568 250.768 149.37 258.327 149.37 267.652C149.37 276.977 157.568 284.536 167.679 284.536Z" fill="#5E366A"/>
<path d="M273.36 299.28C279.846 299.28 285.104 294.431 285.104 288.449C285.104 282.468 279.846 277.619 273.36 277.619C266.875 277.619 261.617 282.468 261.617 288.449C261.617 294.431 266.875 299.28 273.36 299.28Z" fill="#5E366A"/>
<path d="M423.336 341.2C429.822 341.2 435.079 336.352 435.079 330.37C435.079 324.389 429.822 319.54 423.336 319.54C416.85 319.54 411.592 324.389 411.592 330.37C411.592 336.352 416.85 341.2 423.336 341.2Z" fill="#5E366A"/>
<path d="M392.412 213.444C398.897 213.444 404.155 208.595 404.155 202.614C404.155 196.633 398.897 191.784 392.412 191.784C385.926 191.784 380.668 196.633 380.668 202.614C380.668 208.595 385.926 213.444 392.412 213.444Z" fill="#5E366A"/>
<path d="M454.988 189.156C461.474 189.156 466.731 184.307 466.731 178.326C466.731 172.344 461.474 167.496 454.988 167.496C448.502 167.496 443.244 172.344 443.244 178.326C443.244 184.307 448.502 189.156 454.988 189.156Z" fill="#5E366A"/>
<path d="M383.831 341.276C397.417 341.276 408.43 331.119 408.43 318.59C408.43 306.061 397.417 295.905 383.831 295.905C370.245 295.905 359.232 306.061 359.232 318.59C359.232 331.119 370.245 341.276 383.831 341.276Z" fill="#5E366A"/>
<path d="M309.082 290.382C322.906 290.382 334.112 280.047 334.112 267.299C334.112 254.55 322.906 244.215 309.082 244.215C295.258 244.215 284.051 254.55 284.051 267.299C284.051 280.047 295.258 290.382 309.082 290.382Z" fill="#5E366A"/>
<path d="M260.894 263.332C273.683 263.332 284.051 253.771 284.051 241.977C284.051 230.182 273.683 220.621 260.894 220.621C248.105 220.621 237.737 230.182 237.737 241.977C237.737 253.771 248.105 263.332 260.894 263.332Z" fill="#5E366A"/>
<path d="M430.025 212.187C439.499 212.187 447.179 205.105 447.179 196.368C447.179 187.631 439.499 180.548 430.025 180.548C420.551 180.548 412.87 187.631 412.87 196.368C412.87 205.105 420.551 212.187 430.025 212.187Z" fill="#5E366A"/>
<path d="M265.599 337.924C275.637 337.924 283.775 330.42 283.775 321.163C283.775 311.906 275.637 304.401 265.599 304.401C255.561 304.401 247.424 311.906 247.424 321.163C247.424 330.42 255.561 337.924 265.599 337.924Z" fill="#5E366A"/>
<path d="M400.592 293.772C414.178 293.772 425.191 283.615 425.191 271.086C425.191 258.557 414.178 248.401 400.592 248.401C387.007 248.401 375.993 258.557 375.993 271.086C375.993 283.615 387.007 293.772 400.592 293.772Z" fill="#5E366A"/>
<path d="M209.813 257.736C223.399 257.736 234.412 247.58 234.412 235.051C234.412 222.522 223.399 212.365 209.813 212.365C196.227 212.365 185.214 222.522 185.214 235.051C185.214 247.58 196.227 257.736 209.813 257.736Z" fill="#5E366A"/>
<path d="M320.826 352.041C338.362 352.041 352.577 338.932 352.577 322.76C352.577 306.589 338.362 293.479 320.826 293.479C303.29 293.479 289.075 306.589 289.075 322.76C289.075 338.932 303.29 352.041 320.826 352.041Z" fill="#5E366A"/>
<path d="M221.611 320.786C239.147 320.786 253.363 307.677 253.363 291.505C253.363 275.334 239.147 262.224 221.611 262.224C204.075 262.224 189.86 275.334 189.86 291.505C189.86 307.677 204.075 320.786 221.611 320.786Z" fill="#5E366A"/>
<path d="M117.619 274.619C135.154 274.619 149.37 261.51 149.37 245.338C149.37 229.166 135.154 216.057 117.619 216.057C100.083 216.057 85.8672 229.166 85.8672 245.338C85.8672 261.51 100.083 274.619 117.619 274.619Z" fill="#6A0F1C"/>
<path fill-rule="evenodd" clip-rule="evenodd" d="M261.324 211.279C239.21 205.105 208.068 171.759 165.972 172.678C112.906 173.838 61.0385 215.772 61.0385 215.772C61.0385 215.772 106.074 142.191 193.734 141.065C246.712 140.384 293.782 164.381 352.577 162.596C395.936 161.279 466.206 131.05 466.206 131.05C466.206 131.05 413.335 188.592 346.03 188.525C310.664 188.489 273.377 171.688 250.78 171.945C231.005 172.169 297.332 203.007 298.659 209.722C299.986 216.437 273.104 214.567 261.324 211.279Z" fill="#A1AB94"/>
</svg>
