<?xml version="1.0" encoding="UTF-8" standalone="no"?>
<!DOCTYPE svg PUBLIC "-//W3C//DTD SVG 1.1//EN" "http://www.w3.org/Graphics/SVG/1.1/DTD/svg11.dtd">
<svg width="100%" height="100%" viewBox="0 0 1003 660" version="1.1" xmlns="http://www.w3.org/2000/svg" xmlns:xlink="http://www.w3.org/1999/xlink" xml:space="preserve" xmlns:serif="http://www.serif.com/" style="fill-rule:evenodd;clip-rule:evenodd;stroke-linejoin:round;stroke-miterlimit:2;">
    <g transform="matrix(1,0,0,1,0,-709)">
        <g id="Artboard4" transform="matrix(1,0,0,1,0,-0.964819)">
            <rect x="0" y="709.965" width="1002.508" height="659.965" style="fill:none;"/>
            <g transform="matrix(0.449639,0,0,0.449639,-734.707036,-714.801225)">
                <g transform="matrix(0.268601,0,0,0.247706,-2098.783759,1270.586973)">
                    <g transform="matrix(1,0,0,1,402.606074,3545.153305)">
                        <circle cx="16395.474" cy="8044.291" r="249.893" style="fill:rgb(94,54,106);"/>
                    </g>
                    <g transform="matrix(0.913599,0,0,0.913599,1402.444546,2974.210848)">
                        <circle cx="16395.474" cy="8044.291" r="249.893" style="fill:rgb(94,54,106);"/>
                    </g>
                    <g transform="matrix(0.635195,0,0,0.635195,5929.945825,6426.472084)">
                        <circle cx="16395.474" cy="8044.291" r="249.893" style="fill:rgb(94,54,106);"/>
                    </g>
                    <g transform="matrix(0.599829,0,0,0.599829,6507.666251,5937.134299)">
                        <circle cx="16395.474" cy="8044.291" r="249.893" style="fill:rgb(94,54,106);"/>
                    </g>
                    <g transform="matrix(0.599829,0,0,0.599829,4935.757364,5391.879275)">
                        <circle cx="16395.474" cy="8044.291" r="249.893" style="fill:rgb(94,54,106);"/>
                    </g>
                    <g transform="matrix(0.599829,0,0,0.599829,6998.796131,5471.679761)">
                        <circle cx="16395.474" cy="8044.291" r="249.893" style="fill:rgb(94,54,106);"/>
                    </g>
                    <g transform="matrix(0.44648,0,0,0.44648,8688.32184,6682.309448)">
                        <circle cx="16395.474" cy="8044.291" r="249.893" style="fill:rgb(94,54,106);"/>
                    </g>
                    <g transform="matrix(0.612764,0,0,0.612764,4742.464599,5720.749848)">
                        <circle cx="16395.474" cy="8044.291" r="249.893" style="fill:rgb(94,54,106);"/>
                    </g>
                    <g transform="matrix(0.393045,0,0,0.393045,9228.738418,7676.846257)">
                        <circle cx="16395.474" cy="8044.291" r="249.893" style="fill:rgb(94,54,106);"/>
                    </g>
                    <g transform="matrix(0.393045,0,0,0.393045,10483.071351,8057.031752)">
                        <circle cx="16395.474" cy="8044.291" r="249.893" style="fill:rgb(94,54,106);"/>
                    </g>
                    <g transform="matrix(0.393045,0,0,0.393045,10224.434939,6898.395544)">
                        <circle cx="16395.474" cy="8044.291" r="249.893" style="fill:rgb(94,54,106);"/>
                    </g>
                    <g transform="matrix(0.393045,0,0,0.393045,10747.798592,6678.122802)">
                        <circle cx="16395.474" cy="8044.291" r="249.893" style="fill:rgb(94,54,106);"/>
                    </g>
                    <g transform="matrix(0.823301,0,0,0.823301,3098.421843,4489.090691)">
                        <circle cx="16395.474" cy="8044.291" r="249.893" style="fill:rgb(94,54,106);"/>
                    </g>
                    <g transform="matrix(0.837745,0,0,0.837745,2236.428814,3907.731711)">
                        <circle cx="16395.474" cy="8044.291" r="249.893" style="fill:rgb(94,54,106);"/>
                    </g>
                    <g transform="matrix(0.775039,0,0,0.775039,2861.501998,4182.508196)">
                        <circle cx="16395.474" cy="8044.291" r="249.893" style="fill:rgb(94,54,106);"/>
                    </g>
                    <g transform="matrix(0.574127,0,0,0.574127,7570.088639,5385.07198)">
                        <circle cx="16395.474" cy="8044.291" r="249.893" style="fill:rgb(94,54,106);"/>
                    </g>
                    <g transform="matrix(0.608311,0,0,0.608311,5634.439229,6241.864802)">
                        <circle cx="16395.474" cy="8044.291" r="249.893" style="fill:rgb(94,54,106);"/>
                    </g>
                    <g transform="matrix(0.823301,0,0,0.823301,3238.603618,4058.272565)">
                        <circle cx="16395.474" cy="8044.291" r="249.893" style="fill:rgb(94,54,106);"/>
                    </g>
                    <g transform="matrix(0.823301,0,0,0.823301,1643.003608,3731.466094)">
                        <circle cx="16395.474" cy="8044.291" r="249.893" style="fill:rgb(94,54,106);"/>
                    </g>
                    <g transform="matrix(1.062676,0,0,1.062676,-1353.19642,2601.306841)">
                        <circle cx="16395.474" cy="8044.291" r="249.893" style="fill:rgb(94,54,106);"/>
                    </g>
                    <g transform="matrix(1.062676,0,0,1.062676,-2182.988592,2317.852337)">
                        <circle cx="16395.474" cy="8044.291" r="249.893" style="fill:rgb(94,54,106);"/>
                    </g>
                    <g transform="matrix(1.062676,0,0,1.062676,-3052.74156,1899.158636)">
                        <circle cx="16395.474" cy="8044.291" r="249.893" style="fill:rgb(106,15,28);"/>
                    </g>
                    <g transform="matrix(1.144598,0.005159,-0.004507,0.99999,-2281.155404,3093.38663)">
                        <path d="M15625.38,6964.818C15463.571,6909.661 15234.829,6608.416 14927.272,6618.345C14539.57,6630.862 14162.079,7013.119 14162.079,7013.119C14162.079,7013.119 14488.523,6344.114 15128.997,6330.592C15516.078,6322.42 15860.87,6538.281 16290.416,6519.872C16607.183,6506.297 17119.559,6229.503 17119.559,6229.503C17119.559,6229.503 16735.296,6753.344 16243.501,6755.268C15985.083,6756.278 15712.036,6605.316 15546.933,6608.493C15402.445,6611.274 15888.19,6888.441 15898.125,6949.289C15908.061,7010.138 15711.573,6994.199 15625.38,6964.818Z" style="fill:rgb(161,171,148);"/>
                    </g>
                </g>
                <g transform="matrix(2.147465,0,0,1.980413,800.548578,-422.277772)">
                    <g transform="matrix(168.66717,0,0,168.66717,1213.668007,2184.069426)">
                    </g>
                    <text x="861.997px" y="2184.069px" style="font-family:'NotoSerif-ExtraBold', 'Noto Serif', serif;font-weight:800;font-size:168.667px;">Vite</text>
                </g>
                <g transform="matrix(1.374853,0,0,1.267903,1833.462507,1430.823776)">
                    <g transform="matrix(263.287696,0,0,263.287696,1486.869648,2184.069426)">
                    </g>
                    <text x="588.795px" y="2184.069px" style="font-family:'NotoSerif-ExtraBold', 'Noto Serif', serif;font-weight:800;font-size:263.288px;">Libere</text>
                </g>
            </g>
        </g>
    </g>
</svg>
